<svg width="20" height="20" viewBox="0 0 20 20" fill="none" xmlns="http://www.w3.org/2000/svg">
<path d="M19 17.0263V10.3819C19 9.8465 18.8896 9.31668 18.6756 8.8247C18.4616 8.33271 18.1483 7.88883 17.755 7.52007L11.378 1.54277C11.0063 1.1943 10.5132 1 10.0005 1C9.48781 1 8.9947 1.1943 8.623 1.54277L2.245 7.52007C1.85165 7.88883 1.53844 8.33271 1.3244 8.8247C1.11037 9.31668 0.999999 9.8465 1 10.3819V17.0263C1 17.5498 1.21071 18.0518 1.58579 18.4219C1.96086 18.7921 2.46957 19 3 19H17C17.5304 19 18.0391 18.7921 18.4142 18.4219C18.7893 18.0518 19 17.5498 19 17.0263Z" stroke="black" stroke-width="2" stroke-linecap="round" stroke-linejoin="round"/>
</svg>
